<svg xmlns="http://www.w3.org/2000/svg" viewBox="0 0 16 16" fill="#d7425f" stroke="none">
    <path d="
        M0.00000 8.00000
        c0.00000 -3.86667 0.04701 -5.32204 1.36248 -6.63752
        s2.77085 -1.36248 6.63752 -1.36248
        s5.32204 0.04701 6.63752 1.36248
        s1.36248 2.77085 1.36248 6.63752
        s-0.04701 5.32204 -1.36248 6.63752
        s-2.77085 1.36248 -6.63752 1.36248
        s-5.32204 -0.04701 -6.63752 -1.36248
        s-1.36248 -2.77085 -1.36248 -6.63752
        z
        M2.00000 8.00000
        c0.00000 2.88735 -0.07005 4.37655 0.77670 5.22330
        s2.33595 0.77670 5.22330 0.77670
        s4.37655 0.07005 5.22330 -0.77670
        s0.77670 -2.33595 0.77670 -5.22330
        s0.07005 -4.37655 -0.77670 -5.22330
        s-2.33595 -0.77670 -5.22330 -0.77670
        s-4.37655 -0.07005 -5.22330 0.77670
        s-0.77670 2.33595 -0.77670 5.22330
        z"/>
    <path d="
        M 6.06275 5.05860
        a 1.00000 1.00000 0 0 0 -1.99660 -0.11720
        c -0.04470 0.76675 -0.06640 1.78070 -0.06615 3.05860
        c 0.00000 1.27790 0.02130 2.26985 0.06640 2.99805
        a 1.00000 1.00000 0 0 0 0.93945 0.93555
        c 0.76675 0.04470 1.78070 0.06640 3.05860 0.06640
        a 1.00000 1.00000 0 0 0 0.00000 -2.00000
        c -0.86280 0.00000 -1.41845 -0.02335 -2.02150 -0.04295
        c -0.01920 -0.57880 -0.04295 -1.10245 -0.04295 -1.95705
        c 0.00000 -1.25540 0.02170 -2.24145 0.06275 -2.94140
        z"/>
</svg>
