<svg xmlns="http://www.w3.org/2000/svg" viewBox="0 0 16 16" fill="#d7425f" stroke="none"><path d="M0 8c0-3.86667.04701-5.32204 1.36248-6.63752s2.77085-1.36248 6.63752-1.36248 5.32204.04701 6.63752 1.36248S16 4.133329999999999 16 8s-.04701 5.32204-1.36248 6.63752S11.866670000000001 16 8 16s-5.32204-.04701-6.63752-1.36248-1.36248-2.77085-1.36248-6.63752zM2 8c0 2.88735-.07005 4.37655.7767 5.2233S5.11265 14 8 14s4.37655.07005 5.2233-.7767S14 10.88735 14 8s.07005-4.37655-.7767-5.2233S10.88735 2 8 2s-4.37655-.07005-5.2233.7767S2 5.11265 2 8z"/><path d="M6.06275 5.0586a1 1 0 0 0-1.9966-.1172c-.0447.76675-.0664 1.7807-.06615 3.0586.0 1.2779.0213 2.26985.0664 2.99805a1 1 0 0 0 .93945.93555c.76675.0447 1.7807.0664 3.0586.0664a1 1 0 0 0 0-2c-.8628.0-1.41845-.02335-2.0215-.04295-.0192-.5788-.04295-1.10245-.04295-1.95705.0-1.2554.0217-2.24145.06275-2.9414z"/></svg>